<svg width="24" height="24" viewBox="0 0 24 24" fill="none" xmlns="http://www.w3.org/2000/svg">
<path fill-rule="evenodd" clip-rule="evenodd" d="M5 21C5 19.3431 6.34315 18 8 18C9.65685 18 11 19.3431 11 21C11 22.6569 9.65685 24 8 24C6.34315 24 5 22.6569 5 21ZM8 20C7.44772 20 7 20.4477 7 21C7 21.5523 7.44772 22 8 22C8.55228 22 9 21.5523 9 21C9 20.4477 8.55228 20 8 20Z" fill="#515B70"/>
<path fill-rule="evenodd" clip-rule="evenodd" d="M17 21C17 19.3431 18.3431 18 20 18C21.6569 18 23 19.3431 23 21C23 22.6569 21.6569 24 20 24C18.3431 24 17 22.6569 17 21ZM20 20C19.4477 20 19 20.4477 19 21C19 21.5523 19.4477 22 20 22C20.5523 22 21 21.5523 21 21C21 20.4477 20.5523 20 20 20Z" fill="#515B70"/>
<path fill-rule="evenodd" clip-rule="evenodd" d="M0 1C0 0.447715 0.447715 0 1 0H3.25151C4.75574 0.00227875 6.02571 1.11819 6.22146 2.60958L6.53686 5H23C23.2996 5 23.5835 5.13436 23.7734 5.3661C23.9634 5.59784 24.0394 5.90254 23.9805 6.19634L22.3008 14.5848L22.3006 14.5862C22.0175 16.0073 20.7593 17.0227 19.3113 17H8.75378C7.24033 17.0105 5.95576 15.8918 5.75859 14.3908M5.75859 14.3908L4.23859 2.87081C4.17343 2.37381 3.75029 2.00107 3.24911 2H1C0.447715 2 0 1.55228 0 1M6.80075 7L7.74141 14.1292C7.80708 14.6302 8.23626 15.0043 8.74152 15L8.75 15L19.32 15L19.3392 15.0002C19.8235 15.0095 20.2448 14.6703 20.3392 14.1952L20.3395 14.1937L21.7799 7H6.80075Z" fill="#515B70"/>
</svg>
